<svg width="750" height="128" viewBox="0 0 750 128" fill="none" xmlns="http://www.w3.org/2000/svg">
<g clip-path="url(#clip0_4_2)">
<path d="M134.739 95V36.8182H145.278V86.1648H170.903V95H134.739ZM192.153 95.8807C189.388 95.8807 186.898 95.3883 184.682 94.4034C182.485 93.3996 180.742 91.9223 179.455 89.9716C178.186 88.0208 177.551 85.6155 177.551 82.7557C177.551 80.2936 178.006 78.2576 178.915 76.6477C179.824 75.0379 181.064 73.75 182.636 72.7841C184.208 71.8182 185.979 71.089 187.949 70.5966C189.938 70.0852 191.992 69.7159 194.114 69.4886C196.67 69.2235 198.744 68.9867 200.335 68.7784C201.926 68.5511 203.081 68.2102 203.801 67.7557C204.54 67.2822 204.909 66.553 204.909 65.5682V65.3977C204.909 63.2576 204.275 61.6004 203.006 60.4261C201.737 59.2519 199.909 58.6648 197.523 58.6648C195.004 58.6648 193.006 59.214 191.528 60.3125C190.07 61.411 189.085 62.7083 188.574 64.2045L178.972 62.8409C179.729 60.1894 180.979 57.9735 182.722 56.1932C184.464 54.3939 186.595 53.0492 189.114 52.1591C191.633 51.25 194.417 50.7955 197.466 50.7955C199.568 50.7955 201.661 51.0417 203.744 51.5341C205.828 52.0265 207.731 52.8409 209.455 53.9773C211.178 55.0947 212.561 56.6193 213.602 58.5511C214.663 60.483 215.193 62.8977 215.193 65.7955V95H205.307V89.0057H204.966C204.341 90.2178 203.46 91.3542 202.324 92.4148C201.206 93.4564 199.795 94.2992 198.091 94.9432C196.405 95.5682 194.426 95.8807 192.153 95.8807ZM194.824 88.3239C196.888 88.3239 198.678 87.9167 200.193 87.1023C201.708 86.2689 202.873 85.1705 203.688 83.8068C204.521 82.4432 204.938 80.9564 204.938 79.3466V74.2045C204.616 74.4697 204.066 74.7159 203.29 74.9432C202.532 75.1705 201.68 75.3693 200.733 75.5398C199.786 75.7102 198.848 75.8617 197.92 75.9943C196.992 76.1269 196.188 76.2405 195.506 76.3352C193.972 76.5436 192.598 76.8845 191.386 77.358C190.174 77.8314 189.218 78.4943 188.517 79.3466C187.816 80.1799 187.466 81.2595 187.466 82.5852C187.466 84.4792 188.157 85.9091 189.54 86.875C190.922 87.8409 192.684 88.3239 194.824 88.3239ZM253.347 76.6477V51.3636H263.631V95H253.659V87.2443H253.205C252.22 89.6875 250.6 91.6856 248.347 93.2386C246.112 94.7917 243.356 95.5682 240.08 95.5682C237.22 95.5682 234.691 94.9337 232.494 93.6648C230.316 92.3769 228.612 90.5114 227.381 88.0682C226.15 85.6061 225.534 82.6326 225.534 79.1477V51.3636H235.818V77.5568C235.818 80.322 236.576 82.5189 238.091 84.1477C239.606 85.7765 241.595 86.5909 244.057 86.5909C245.572 86.5909 247.04 86.2216 248.46 85.483C249.881 84.7443 251.045 83.6458 251.955 82.1875C252.883 80.7102 253.347 78.8636 253.347 76.6477ZM284.49 69.4318V95H274.206V51.3636H284.036V58.7784H284.547C285.551 56.3352 287.151 54.3939 289.348 52.9545C291.564 51.5152 294.301 50.7955 297.558 50.7955C300.57 50.7955 303.193 51.4394 305.428 52.7273C307.681 54.0152 309.424 55.8807 310.655 58.3239C311.905 60.767 312.52 63.7311 312.501 67.2159V95H302.217V68.8068C302.217 65.8902 301.46 63.608 299.945 61.9602C298.448 60.3125 296.375 59.4886 293.723 59.4886C291.924 59.4886 290.323 59.8864 288.922 60.6818C287.539 61.4583 286.45 62.5852 285.655 64.0625C284.878 65.5398 284.49 67.3295 284.49 69.4318ZM341.99 95.8523C337.634 95.8523 333.893 94.8958 330.768 92.983C327.662 91.0701 325.267 88.428 323.581 85.0568C321.914 81.6667 321.081 77.7652 321.081 73.3523C321.081 68.9205 321.933 65.0095 323.638 61.6193C325.342 58.2102 327.748 55.5587 330.854 53.6648C333.979 51.7519 337.672 50.7955 341.933 50.7955C345.475 50.7955 348.609 51.4489 351.337 52.7557C354.083 54.0436 356.27 55.8712 357.899 58.2386C359.528 60.5871 360.456 63.3333 360.683 66.4773H350.854C350.456 64.375 349.509 62.6231 348.013 61.2216C346.536 59.8011 344.556 59.0909 342.075 59.0909C339.973 59.0909 338.126 59.6591 336.536 60.7955C334.945 61.9129 333.704 63.5227 332.814 65.625C331.943 67.7273 331.507 70.2462 331.507 73.1818C331.507 76.1553 331.943 78.7121 332.814 80.8523C333.685 82.9735 334.907 84.6117 336.479 85.767C338.07 86.9034 339.935 87.4716 342.075 87.4716C343.59 87.4716 344.945 87.1875 346.138 86.6193C347.35 86.0322 348.363 85.1894 349.178 84.0909C349.992 82.9924 350.551 81.6572 350.854 80.0852H360.683C360.437 83.1723 359.528 85.9091 357.956 88.2955C356.384 90.6629 354.244 92.5189 351.536 93.8636C348.827 95.1894 345.645 95.8523 341.99 95.8523ZM379.412 69.4318V95H369.128V36.8182H379.185V58.7784H379.696C380.719 56.3163 382.3 54.375 384.44 52.9545C386.599 51.5152 389.346 50.7955 392.679 50.7955C395.709 50.7955 398.351 51.4299 400.605 52.6989C402.859 53.9678 404.601 55.8239 405.832 58.267C407.082 60.7102 407.707 63.6932 407.707 67.2159V95H397.423V68.8068C397.423 65.8712 396.666 63.589 395.151 61.9602C393.654 60.3125 391.552 59.4886 388.844 59.4886C387.026 59.4886 385.397 59.8864 383.957 60.6818C382.537 61.4583 381.42 62.5852 380.605 64.0625C379.81 65.5398 379.412 67.3295 379.412 69.4318ZM438.489 95V36.8182H449.028V86.1648H474.653V95H438.489ZM502.665 95.8523C498.29 95.8523 494.511 94.9432 491.33 93.125C488.167 91.2879 485.733 88.6932 484.028 85.3409C482.324 81.9697 481.472 78.0019 481.472 73.4375C481.472 68.9489 482.324 65.0095 484.028 61.6193C485.752 58.2102 488.157 55.5587 491.244 53.6648C494.331 51.7519 497.958 50.7955 502.125 50.7955C504.814 50.7955 507.352 51.2311 509.739 52.1023C512.144 52.9545 514.265 54.2803 516.102 56.0795C517.958 57.8788 519.417 60.1705 520.477 62.9545C521.538 65.7197 522.068 69.0152 522.068 72.8409V75.9943H486.301V69.0625H512.21C512.191 67.0928 511.765 65.3409 510.932 63.8068C510.098 62.2538 508.934 61.0322 507.438 60.142C505.96 59.2519 504.237 58.8068 502.267 58.8068C500.165 58.8068 498.318 59.3182 496.727 60.3409C495.136 61.3447 493.896 62.6705 493.006 64.3182C492.134 65.947 491.689 67.7367 491.67 69.6875V75.7386C491.67 78.2765 492.134 80.4545 493.062 82.2727C493.991 84.072 495.288 85.4545 496.955 86.4205C498.621 87.3674 500.572 87.8409 502.807 87.8409C504.303 87.8409 505.657 87.6326 506.869 87.2159C508.081 86.7803 509.133 86.1458 510.023 85.3125C510.913 84.4792 511.585 83.447 512.04 82.2159L521.642 83.2955C521.036 85.8333 519.881 88.0492 518.176 89.9432C516.491 91.8182 514.331 93.2765 511.699 94.3182C509.066 95.3409 506.055 95.8523 502.665 95.8523ZM549.803 95.8523C545.541 95.8523 541.848 94.9148 538.723 93.0398C535.598 91.1648 533.174 88.5417 531.45 85.1705C529.746 81.7992 528.893 77.8598 528.893 73.3523C528.893 68.8447 529.746 64.8958 531.45 61.5057C533.174 58.1155 535.598 55.483 538.723 53.608C541.848 51.733 545.541 50.7955 549.803 50.7955C554.064 50.7955 557.757 51.733 560.882 53.608C564.007 55.483 566.422 58.1155 568.126 61.5057C569.85 64.8958 570.712 68.8447 570.712 73.3523C570.712 77.8598 569.85 81.7992 568.126 85.1705C566.422 88.5417 564.007 91.1648 560.882 93.0398C557.757 94.9148 554.064 95.8523 549.803 95.8523ZM549.859 87.6136C552.17 87.6136 554.102 86.9792 555.655 85.7102C557.208 84.4223 558.363 82.6989 559.121 80.5398C559.897 78.3807 560.286 75.9754 560.286 73.3239C560.286 70.6534 559.897 68.2386 559.121 66.0795C558.363 63.9015 557.208 62.1686 555.655 60.8807C554.102 59.5928 552.17 58.9489 549.859 58.9489C547.492 58.9489 545.522 59.5928 543.95 60.8807C542.397 62.1686 541.232 63.9015 540.456 66.0795C539.698 68.2386 539.32 70.6534 539.32 73.3239C539.32 75.9754 539.698 78.3807 540.456 80.5398C541.232 82.6989 542.397 84.4223 543.95 85.7102C545.522 86.9792 547.492 87.6136 549.859 87.6136ZM579.44 111.364V51.3636H589.554V58.5795H590.151C590.681 57.5189 591.429 56.392 592.395 55.1989C593.361 53.9867 594.668 52.9545 596.315 52.1023C597.963 51.2311 600.065 50.7955 602.622 50.7955C605.993 50.7955 609.033 51.6572 611.741 53.3807C614.469 55.0852 616.628 57.6136 618.219 60.9659C619.829 64.2992 620.634 68.3902 620.634 73.2386C620.634 78.0303 619.848 82.1023 618.276 85.4545C616.704 88.8068 614.563 91.3636 611.855 93.125C609.147 94.8864 606.079 95.767 602.651 95.767C600.151 95.767 598.077 95.3504 596.429 94.517C594.781 93.6837 593.455 92.6799 592.452 91.5057C591.467 90.3125 590.7 89.1856 590.151 88.125H589.724V111.364H579.44ZM589.526 73.1818C589.526 76.0038 589.923 78.4754 590.719 80.5966C591.533 82.7178 592.698 84.375 594.213 85.5682C595.747 86.7424 597.603 87.3295 599.781 87.3295C602.054 87.3295 603.957 86.7235 605.491 85.5114C607.026 84.2803 608.181 82.6042 608.957 80.483C609.753 78.3428 610.151 75.9091 610.151 73.1818C610.151 70.4735 609.762 68.0682 608.986 65.9659C608.209 63.8636 607.054 62.2159 605.52 61.0227C603.986 59.8295 602.073 59.233 599.781 59.233C597.584 59.233 595.719 59.8106 594.185 60.9659C592.651 62.1212 591.486 63.7405 590.69 65.8239C589.914 67.9072 589.526 70.3598 589.526 73.1818ZM641.997 95.8807C639.232 95.8807 636.741 95.3883 634.526 94.4034C632.329 93.3996 630.586 91.9223 629.298 89.9716C628.029 88.0208 627.395 85.6155 627.395 82.7557C627.395 80.2936 627.849 78.2576 628.759 76.6477C629.668 75.0379 630.908 73.75 632.48 72.7841C634.052 71.8182 635.823 71.089 637.793 70.5966C639.781 70.0852 641.836 69.7159 643.957 69.4886C646.514 69.2235 648.588 68.9867 650.179 68.7784C651.77 68.5511 652.925 68.2102 653.645 67.7557C654.384 67.2822 654.753 66.553 654.753 65.5682V65.3977C654.753 63.2576 654.118 61.6004 652.849 60.4261C651.58 59.2519 649.753 58.6648 647.366 58.6648C644.848 58.6648 642.849 59.214 641.372 60.3125C639.914 61.411 638.929 62.7083 638.418 64.2045L628.815 62.8409C629.573 60.1894 630.823 57.9735 632.565 56.1932C634.308 54.3939 636.438 53.0492 638.957 52.1591C641.476 51.25 644.26 50.7955 647.31 50.7955C649.412 50.7955 651.505 51.0417 653.588 51.5341C655.671 52.0265 657.575 52.8409 659.298 53.9773C661.022 55.0947 662.404 56.6193 663.446 58.5511C664.507 60.483 665.037 62.8977 665.037 65.7955V95H655.151V89.0057H654.81C654.185 90.2178 653.304 91.3542 652.168 92.4148C651.05 93.4564 649.639 94.2992 647.935 94.9432C646.249 95.5682 644.27 95.8807 641.997 95.8807ZM644.668 88.3239C646.732 88.3239 648.522 87.9167 650.037 87.1023C651.552 86.2689 652.717 85.1705 653.531 83.8068C654.365 82.4432 654.781 80.9564 654.781 79.3466V74.2045C654.459 74.4697 653.91 74.7159 653.134 74.9432C652.376 75.1705 651.524 75.3693 650.577 75.5398C649.63 75.7102 648.692 75.8617 647.764 75.9943C646.836 76.1269 646.031 76.2405 645.349 76.3352C643.815 76.5436 642.442 76.8845 641.23 77.358C640.018 77.8314 639.062 78.4943 638.361 79.3466C637.66 80.1799 637.31 81.2595 637.31 82.5852C637.31 84.4792 638.001 85.9091 639.384 86.875C640.766 87.8409 642.527 88.3239 644.668 88.3239ZM675.378 95V51.3636H685.349V58.6364H685.804C686.599 56.1174 687.963 54.1761 689.895 52.8125C691.846 51.4299 694.071 50.7386 696.571 50.7386C697.139 50.7386 697.774 50.767 698.474 50.8239C699.194 50.8617 699.791 50.928 700.264 51.0227V60.483C699.829 60.3314 699.137 60.1989 698.19 60.0852C697.262 59.9527 696.363 59.8864 695.491 59.8864C693.616 59.8864 691.931 60.2936 690.435 61.108C688.957 61.9034 687.793 63.0114 686.94 64.4318C686.088 65.8523 685.662 67.4905 685.662 69.3466V95H675.378ZM721.493 95.767C718.065 95.767 714.997 94.8864 712.288 93.125C709.58 91.3636 707.44 88.8068 705.868 85.4545C704.296 82.1023 703.51 78.0303 703.51 73.2386C703.51 68.3902 704.305 64.2992 705.896 60.9659C707.506 57.6136 709.675 55.0852 712.402 53.3807C715.129 51.6572 718.169 50.7955 721.521 50.7955C724.078 50.7955 726.18 51.2311 727.828 52.1023C729.476 52.9545 730.783 53.9867 731.749 55.1989C732.714 56.392 733.463 57.5189 733.993 58.5795H734.419V36.8182H744.732V95H734.618V88.125H733.993C733.463 89.1856 732.696 90.3125 731.692 91.5057C730.688 92.6799 729.362 93.6837 727.714 94.517C726.067 95.3504 723.993 95.767 721.493 95.767ZM724.362 87.3295C726.54 87.3295 728.396 86.7424 729.93 85.5682C731.464 84.375 732.629 82.7178 733.425 80.5966C734.22 78.4754 734.618 76.0038 734.618 73.1818C734.618 70.3598 734.22 67.9072 733.425 65.8239C732.648 63.7405 731.493 62.1212 729.959 60.9659C728.444 59.8106 726.578 59.233 724.362 59.233C722.071 59.233 720.158 59.8295 718.624 61.0227C717.089 62.2159 715.934 63.8636 715.158 65.9659C714.381 68.0682 713.993 70.4735 713.993 73.1818C713.993 75.9091 714.381 78.3428 715.158 80.483C715.953 82.6042 717.118 84.2803 718.652 85.5114C720.205 86.7235 722.108 87.3295 724.362 87.3295Z" fill="black"/>
<circle cx="50" cy="64" r="50" fill="black"/>
<path d="M46.3846 25.7006C64.2505 23.9193 82.9114 35.6998 87.7713 55.122C92.4754 73.9218 81.626 93.6155 63.0778 100.181C44.0127 106.929 22.9566 98.3701 14.5554 80.1398C6.72725 63.1545 11.6534 43.1263 28.8401 31.6339C28.6413 32.2564 28.5254 32.6769 28.3763 33.0841C25.895 39.8849 29.2542 48.3875 35.7174 51.6521C37.1386 52.3706 38.0497 51.9104 38.2716 50.3045C38.4969 48.6822 38.3544 47.4074 36.7212 46.2254C31.7388 42.6131 31.2452 34.8621 35.5286 30.9452C39.3019 27.4919 45.0463 28.6209 47.1068 33.3258C47.713 34.7098 48.4584 35.1104 49.9392 35.1866C53.3912 35.3621 56.916 35.468 60.2486 36.2759C65.4033 37.5242 69.5311 40.5272 72.3105 45.1825C72.8472 46.083 73.4567 46.9406 73.9868 47.8412C76.2494 51.6918 78.4921 55.5525 80.9039 59.6813H74.1458C75.3417 61.3036 76.1699 62.5784 77.1538 63.7206C77.8925 64.5782 78.0946 65.3993 77.6938 66.4357C77.22 67.6607 76.9418 68.9851 76.3156 70.1208C75.2257 72.0974 73.4236 73.1172 71.1444 73.1503C68.7161 73.1834 66.2845 73.1437 63.8563 73.1569C61.8653 73.1669 60.6925 73.9781 60.6859 75.3091C60.6793 76.7196 62.0972 77.8354 63.9788 77.8585C65.9665 77.8817 67.9575 77.8188 69.9418 77.8817C72.9465 77.9811 75.4841 77.097 77.3327 74.5707C77.8395 76.7692 76.5409 79.5306 74.3346 80.9775C71.6744 82.7224 68.8586 82.7489 65.9301 81.7556C64.108 81.1364 62.2992 80.3054 60.4176 80.067C54.4579 79.3121 49.3595 83.6362 48.74 89.8542C48.528 91.9865 48.6373 94.1519 48.5015 96.2941C48.3988 97.9032 49.068 98.3899 50.625 98.3337C62.0905 97.9363 71.4392 93.4301 78.2901 84.1196C89.8418 68.4322 85.8498 46.6492 69.4482 35.5276C64.1942 31.965 58.3835 30.1804 52.0859 29.7235C51.2213 29.6606 50.3202 29.0547 49.5815 28.505C48.4518 27.664 47.448 26.6575 46.378 25.7073L46.3846 25.7006ZM53.3282 46.3347C54.4711 49.99 56.3925 52.6487 59.6755 53.2745C63.0777 53.9234 66.6522 53.6586 70.1539 53.7811C70.2069 53.7811 70.2665 53.6122 70.3957 53.4069C70.1075 52.8904 69.7497 52.3408 69.4814 51.7481C67.5898 47.5962 64.5519 45.6294 59.8544 46.285C57.817 46.5698 55.7101 46.3314 53.3282 46.3314V46.3347ZM26.0474 79.3948C27.9258 79.3684 29.496 77.8685 29.5159 76.0805C29.5391 74.2231 27.886 72.551 26.0441 72.5676C24.1359 72.5841 22.5061 74.2231 22.5756 76.0574C22.6419 77.8354 24.2883 79.4213 26.0474 79.3948ZM48.5876 51.821C48.581 49.9039 46.9809 48.2683 45.1655 48.3113C43.3435 48.3577 41.8064 49.8973 41.7865 51.6985C41.7666 53.5493 43.3899 55.2843 45.1556 55.2975C47.0372 55.3108 48.5976 53.7314 48.5876 51.8177V51.821ZM57.711 60.1315C57.764 58.3403 56.0745 56.6219 54.2525 56.6153C52.4503 56.6087 50.8635 58.1748 50.8503 59.9726C50.837 61.893 52.3543 63.4392 54.279 63.469C56.0447 63.4988 57.658 61.9294 57.711 60.1282V60.1315ZM41.3691 86.6326C41.4055 84.7023 39.8684 83.0137 38.0728 83.0204C36.3104 83.0237 34.6044 84.6328 34.5679 86.3181C34.5282 88.2087 36.0686 89.8277 37.937 89.8509C39.8717 89.8774 41.3326 88.5067 41.3691 86.6326ZM35.7241 62.7274C35.7009 60.7706 34.1439 59.2045 32.2854 59.2707C30.5495 59.3303 29.0024 60.8765 28.9859 62.5651C28.966 64.4524 30.6986 66.1377 32.6101 66.0979C34.3691 66.0582 35.7473 64.5683 35.7241 62.7274ZM23.1156 50.1556C21.2505 50.1324 19.5809 51.7614 19.6041 53.5824C19.6239 55.3472 21.2141 56.9199 23.0195 56.9596C24.8184 56.9994 26.3754 55.4531 26.3853 53.6089C26.3953 51.7581 24.9012 50.1754 23.1189 50.1522L23.1156 50.1556ZM20.631 63.4392C18.7593 63.4392 17.2321 64.9358 17.242 66.7568C17.252 68.6507 18.8521 70.24 20.7205 70.2135C22.4961 70.187 23.9736 68.7269 24.0134 66.9522C24.0564 65.0086 22.5425 63.4359 20.631 63.4392ZM38.2948 77.2559C40.0473 77.2857 41.5446 75.8355 41.5976 74.0575C41.654 72.2464 40.0075 70.5446 38.1722 70.5247C36.4661 70.5049 34.9058 72.0345 34.8628 73.7728C34.8164 75.6336 36.38 77.2228 38.2915 77.2559H38.2948ZM50.6184 74.6204C52.4305 74.6005 53.8682 73.1768 53.8848 71.3955C53.9013 69.4784 52.3509 68.0017 50.3798 68.0547C48.581 68.1011 47.1201 69.5877 47.1532 71.3326C47.1863 73.0609 48.8493 74.637 50.6217 74.6204H50.6184ZM46.6265 62.095C46.6265 60.7937 45.3974 59.5554 44.1054 59.5554C42.8267 59.5554 41.7103 60.701 41.7235 61.9923C41.7401 63.3598 42.9062 64.5451 44.228 64.5318C45.5034 64.5186 46.6231 63.3829 46.6265 62.095Z" fill="#FBBB04"/>
</g>
<defs>
<clipPath id="clip0_4_2">
<rect width="750" height="128" fill="white"/>
</clipPath>
</defs>
</svg>
